<?xml version="1.0" encoding="UTF-8" standalone="no"?>
<!-- Created with Inkscape (http://www.inkscape.org/) -->

<svg
   width="255.72444mm"
   height="50.087189mm"
   viewBox="0 0 255.72444 50.087189"
   version="1.1"
   id="svg259"
   inkscape:version="1.2.1 (9c6d41e410, 2022-07-14)"
   sodipodi:docname="kmn_logo.svg"
   xmlns:inkscape="http://www.inkscape.org/namespaces/inkscape"
   xmlns:sodipodi="http://sodipodi.sourceforge.net/DTD/sodipodi-0.dtd"
   xmlns="http://www.w3.org/2000/svg"
   xmlns:svg="http://www.w3.org/2000/svg">
  <sodipodi:namedview
     id="namedview261"
     pagecolor="#ffffff"
     bordercolor="#000000"
     borderopacity="0.25"
     inkscape:showpageshadow="2"
     inkscape:pageopacity="0.0"
     inkscape:pagecheckerboard="0"
     inkscape:deskcolor="#d1d1d1"
     inkscape:document-units="mm"
     showgrid="false"
     inkscape:zoom="0.52724989"
     inkscape:cx="459.93371"
     inkscape:cy="476.0551"
     inkscape:window-width="1920"
     inkscape:window-height="1017"
     inkscape:window-x="-8"
     inkscape:window-y="-8"
     inkscape:window-maximized="1"
     inkscape:current-layer="layer1" />
  <defs
     id="defs256">
    <clipPath
       clipPathUnits="userSpaceOnUse"
       id="clipPath219">
      <path
         d="M 0,62.482 H 160.811 V 0 H 0 Z"
         id="path217" />
    </clipPath>
  </defs>
  <g
     inkscape:label="Layer 1"
     inkscape:groupmode="layer"
     id="layer1"
     transform="translate(-21.748771,-81.060671)">
    <g
       id="g213"
       transform="matrix(1.6786222,0,0,-1.6786224,14.214516,150.98748)">
      <g
         id="g215"
         clip-path="url(#clipPath219)">
        <g
           id="g221"
           transform="translate(16.6981,5.4767)">
          <path
             d="m -3.835,34.04092 c 0.581,1.662 2.401,2.541 4.064,1.961 1.664,-0.579 2.542,-2.399 1.961,-4.062 l -2.436,-6.973 12.965,10.297 c 1.382,1.097 3.392,0.866 4.49,-0.514 1.097,-1.38 0.868,-3.39 -0.513,-4.487 l -13.289,-10.555 4.369,-5.684 c 8.921,6.96 17.771,13.953 26.645,20.969 2.312,1.829 5.983,-0.787 5.001,-3.576 l -4.461,-12.662 c 6.97,5.437 14.057,10.768 20.976,16.238 2.312,1.829 5.982,-0.787 5.001,-3.576 l -4.461,-12.662 c 6.895,5.379 13.723,10.814 20.584,16.238 2.312,1.829 5.983,-0.787 5.001,-3.576 l -4.46,-12.662 c 6.815,5.318 13.38,10.853 20.192,16.238 2.311,1.829 5.982,-0.787 5.001,-3.576 l -4.461,-12.662 c 6.97,5.437 14.057,10.768 20.975,16.238 2.312,1.829 5.983,-0.787 5.002,-3.576 l -4.461,-12.662 15.13,11.805 c 1.388,1.083 3.394,0.836 4.477,-0.552 1.083,-1.387 0.837,-3.392 -0.551,-4.474 L 115.176,7.019923 c -2.32,-1.8109991 -5.951,0.8059991 -4.976,3.575997 l 4.407,12.509 c -6.87,-5.432 -13.999,-10.665 -20.946,-16.084997 -2.32,-1.8109991 -5.951,0.8059991 -4.976,3.575997 L 92.92,22.61792 72.928,7.019923 c -2.32,-1.8109991 -5.951,0.8059991 -4.976,3.575997 l 4.384,12.443 L 51.804,7.019923 c -2.32,-1.8109991 -5.951,0.8059991 -4.976,3.575997 l 4.407,12.509 C 44.365,17.67292 37.236,12.43992 30.288,7.019923 27.969,5.2089239 24.337,7.8259221 25.312,10.59592 l 4.383,12.441 L 9.166,7.019923 c -1.267,-0.989 -3.51,-0.711 -4.488,0.5629994 L -2.882,17.41892 -6.005,8.4829215 C -6.585,6.819923 -8.407,5.940923 -10.07,6.520923 c -1.663,0.579 -2.541,2.3989982 -1.961,4.061997 z"
             style="opacity:1;fill:#0f1538;fill-opacity:1;fill-rule:evenodd;stroke:none"
             id="path223"
             sodipodi:nodetypes="ccccccccccccccccccccccccccccccccccccccccccccccccc" />
        </g>
      </g>
    </g>
  </g>
</svg>
